<svg id="Layer_3" enable-background="new 0 0 64 64" height="512" viewBox="0 0 64 64" width="512" xmlns="http://www.w3.org/2000/svg"><g><path d="m60 32.99h-1v-5c0-1.654-1.346-3-3.005-3l-.995.005v-10.995c0-.552-.448-1-1-1h-26c-.552 0-1 .448-1 1v10.995l-1-.005c-1.654 0-3 1.346-3 3v5h-9c-1.654 0-3 1.346-3 3v.01h-2.184c-.414-1.161-1.514-2-2.816-2h-2c-1.654 0-3 1.346-3 3v12c0 1.654 1.346 3 3 3v4.5c0 3.584 2.916 6.5 6.5 6.5s6.5-2.916 6.5-6.5v-3.5h4v1c0 1.654 1.346 3 3 3h3v1c0 .552.447 1 1 1l26 .01c.265 0 .52-.105.707-.293s.293-.442.293-.707v-1.01h3c1.654 0 3-1.346 3-3v-1.174c1.161-.414 2-1.514 2-2.816v-14.02c0-1.654-1.346-3-3-3zm-4-6c.551 0 1 .449 1 1v5h-2v-5.995zm-3-11.99v17.99h-24v-17.99zm-28 12.99c0-.551.449-1 .995-1l1.005.005v5.995h-2zm-14 20.01h-2v-10h2zm-8 1v-12c0-.552.449-1 1-1h2c.551 0 1 .448 1 1v12c0 .552-.449 1-1 1h-2c-.551 0-1-.448-1-1zm12 7.5c0 2.481-2.019 4.5-4.5 4.5s-4.5-2.019-4.5-4.5v-4.5c1.302 0 2.402-.839 2.816-2h2.184c0 1.654 1.346 3 3 3h1zm40-5.49v-6.01h2v6.01zm2-8.01h-32v-2h32zm-32 2h2v6h-2zm-1 10c-.551 0-1-.448-1-1v-1h4v2zm5 2v-12h24v12.01zm29-2h-3v-1.99h4v.99c0 .552-.449 1-1 1zm3-4.99c0 .552-.449 1-1 1h-1v-11.01c0-.553-.448-1-1-1h-34c-.552 0-1 .447-1 1v11h-9c-.551 0-1-.448-1-1v-14.01c0-.552.449-1 1-1h46c.551 0 1 .448 1 1z"/><path d="m31 52h20v2h-20z"/><path d="m31 48h20v2h-20z"/><path d="m15 39h2v2h-2z"/><path d="m15 43h2v2h-2z"/><path d="m15 47h2v2h-2z"/><path d="m19 39h2v2h-2z"/><path d="m19 43h2v2h-2z"/><path d="m19 47h2v2h-2z"/><path d="m27.879 6.707-.586.586 1.414 1.414.586-.586c1.446-1.446 3.968-1.446 5.414 0l.586.586 1.414-1.414-.586-.586c-1.1-1.101-2.564-1.707-4.121-1.707s-3.021.606-4.121 1.707z"/><path d="m25.878 5.536c1.636-1.636 3.81-2.536 6.122-2.536s4.486.9 6.122 2.536l.171.171 1.414-1.414-.171-.171c-2.013-2.014-4.689-3.122-7.536-3.122s-5.523 1.108-7.536 3.122l-.171.171 1.414 1.414z"/></g></svg>