<svg id="Capa_1" enable-background="new 0 0 511.997 511.997" height="512" viewBox="0 0 511.997 511.997" width="512" xmlns="http://www.w3.org/2000/svg"><g><path d="m255.998 0c-141.49 0-255.998 114.496-255.998 255.999 0 141.49 114.495 255.998 255.998 255.998 141.493 0 255.999-114.495 255.999-255.998 0-141.491-114.496-255.999-255.999-255.999zm0 496.997c-132.887 0-240.998-108.111-240.998-240.998 0-132.888 108.111-240.999 240.998-240.999 132.888 0 240.999 108.111 240.999 240.999 0 132.887-108.111 240.998-240.999 240.998z"/><path d="m255.998 31.499c-124.08 0-224.5 100.409-224.5 224.5 0 124.08 100.409 224.5 224.5 224.5 124.08 0 224.5-100.409 224.5-224.5 0-124.08-100.409-224.5-224.5-224.5zm155.733 84.525c-4.247 3.096-8.715 6.071-13.359 8.902-7.147-8.557-18.372-13.024-29.938-11.059-12.21-23.18-27.01-41.966-43.534-55.713 33.67 11.759 63.448 31.88 86.831 57.87zm-20.923 29.382c0 9.374-7.626 17-17 17s-17-7.626-17-17 7.626-17 17-17 17 7.626 17 17zm-127.31-98.555c35.148 3.265 67.879 29.396 91.122 72.963-8.954 6.73-14.065 17.847-12.54 29.703-24.842 7.394-51.221 11.44-78.583 12.065v-114.731zm0 129.737c29.228-.638 57.421-5.015 83.973-13.035 6.298 9.112 17.104 14.722 29.007 13.733 5.761 22.703 8.937 46.605 9.473 71.213h-36.893c-4.143 0-7.5 3.357-7.5 7.5s3.357 7.5 7.5 7.5h36.893c-.536 24.607-3.713 48.51-9.474 71.213-.881-.073-1.77-.12-2.669-.12-10.908 0-20.555 5.49-26.334 13.849-26.547-8.019-54.739-12.393-83.976-13.031v-48.307c11.629-2.805 20.799-11.974 23.604-23.604h26.972c4.143 0 7.5-3.357 7.5-7.5s-3.357-7.5-7.5-7.5h-26.972c-2.805-11.63-11.974-20.799-23.604-23.604zm127.31 190.004c0 9.374-7.626 17-17 17s-17-7.626-17-17 7.626-17 17-17 17 7.626 17 17zm-203.381-308.555c-21.87 18.094-40.562 44.708-54.013 77.57-11.959-5.686-23.072-12.241-33.143-19.591 23.46-26.072 53.353-46.237 87.156-57.979zm61.071-11.185v114.728c-36.229-.847-71.017-7.807-101.366-19.97 22.351-55.045 59.854-90.884 101.366-94.758zm-157.877 80.689c11.346 8.365 23.936 15.766 37.499 22.125-3.73 10.782-6.929 22.136-9.521 34.003-1.02 4.671 2.537 9.103 7.334 9.103 3.449 0 6.555-2.394 7.32-5.901 2.38-10.896 5.286-21.323 8.654-31.227 32.051 12.787 68.618 20.09 106.591 20.942v48.31c-11.629 2.805-20.799 11.974-23.604 23.604h-98.852c.204-9.224.778-18.426 1.726-27.445.433-4.119-2.556-7.81-6.676-8.242-4.102-.434-7.81 2.557-8.242 6.676-1.002 9.537-1.604 19.265-1.81 29.012h-64.394c1.609-45.475 17.772-87.304 43.975-120.96zm0 256.917c-26.203-33.656-42.366-75.485-43.975-120.959h64.396c.735 35.031 6.607 68.693 17.055 98.842-13.555 6.357-26.136 13.755-37.476 22.117zm9.651 11.525c10.068-7.349 21.178-13.902 33.133-19.587 11.877 28.97 29.676 57.442 53.616 77.423-33.636-11.763-63.384-31.87-86.749-57.836zm148.226 69.156c-48.157-4.451-82.846-49.454-101.356-94.755 30.345-12.161 65.126-19.119 101.356-19.966zm0-129.726c-37.986.852-74.557 8.157-106.611 20.949-9.672-28.294-15.122-59.904-15.841-92.864h98.849c2.805 11.63 11.974 20.799 23.604 23.604v48.311zm-9.5-79.414c0-9.374 7.626-17 17-17s17 7.626 17 17-7.626 17-17 17-17-7.626-17-17zm24.5 209.146v-114.73c27.37.625 53.746 4.665 78.583 12.06-.174 1.349-.274 2.721-.274 4.117 0 10.45 5.036 19.745 12.808 25.588-23.24 43.547-56.003 69.695-91.117 72.965zm61.364-11.287c16.541-13.75 31.359-32.544 43.573-55.727 1.748.297 3.542.46 5.373.46 9.859 0 18.688-4.484 24.563-11.518 4.647 2.832 9.115 5.806 13.36 8.902-23.393 26-53.184 46.126-86.869 57.883zm96.519-69.408c-5.169-3.809-10.638-7.452-16.348-10.885.501-2.247.774-4.578.774-6.974 0-11.429-6.027-21.472-15.066-27.134 6.237-24.219 9.665-49.72 10.213-75.959h64.395c-1.608 45.471-17.769 87.297-43.968 120.952zm43.969-135.951h-64.395c-.548-26.24-3.976-51.74-10.213-75.959 11.268-7.058 17.322-20.525 14.291-34.108 5.707-3.43 11.176-7.074 16.348-10.885 26.199 33.655 42.36 75.482 43.969 120.952z"/></g></svg>