<svg height="512" viewBox="0 0 512 512" width="512" xmlns="http://www.w3.org/2000/svg"><g><path d="m480 144h-80v-32a8 8 0 0 0 -8-8h-24v-32a8 8 0 0 0 -8-8h-208a8 8 0 0 0 -8 8v32h-24a8 8 0 0 0 -8 8v32h-80a24.032 24.032 0 0 0 -24 24v192a24.032 24.032 0 0 0 24 24h112v57a8 8 0 0 0 8 8h208a8 8 0 0 0 8-8v-57h112a24.032 24.032 0 0 0 24-24v-192a24.032 24.032 0 0 0 -24-24zm-112-24h16v24h-16zm-208-40h192v64h-192zm-32 40h16v24h-16zm16 216h-16v-24h16zm208 97h-192v-121h192zm136-73a8.011 8.011 0 0 1 -8 8h-112v-16h24a8 8 0 0 0 8-8v-40a8 8 0 0 0 -8-8h-272a8 8 0 0 0 -8 8v40a8 8 0 0 0 8 8h24v16h-112a8.011 8.011 0 0 1 -8-8v-120h464zm-120-24v-24h16v24zm120-112h-464v-56a8.011 8.011 0 0 1 8-8h448a8.011 8.011 0 0 1 8 8z"/><path d="m56 216a24 24 0 1 0 -24-24 24.027 24.027 0 0 0 24 24zm0-32a8 8 0 1 1 -8 8 8.009 8.009 0 0 1 8-8z"/><path d="m112 216a24 24 0 1 0 -24-24 24.027 24.027 0 0 0 24 24zm0-32a8 8 0 1 1 -8 8 8.009 8.009 0 0 1 8-8z"/><path d="m168 216a24 24 0 1 0 -24-24 24.027 24.027 0 0 0 24 24zm0-32a8 8 0 1 1 -8 8 8.009 8.009 0 0 1 8-8z"/><path d="m416 192h56a8 8 0 0 0 0-16h-56a8 8 0 0 0 0 16z"/><path d="m472 200h-24a8 8 0 0 0 0 16h24a8 8 0 0 0 0-16z"/></g></svg>