<svg id="Layer_5" enable-background="new 0 0 64 64" height="512" viewBox="0 0 64 64" width="512" xmlns="http://www.w3.org/2000/svg"><g><path d="m13.707 11.293c-1.101-1.101-1.707-2.565-1.707-4.122v-.171h-2v.171c0 2.091.814 4.057 2.293 5.536z"/><path d="m33.393 25h1.607v1.465c0 1.398 1.138 2.535 2.535 2.535.502 0 .988-.147 1.406-.426l5.362-3.574h8.305c2.443 0 4.491-1.832 4.762-4.261l1.601-14.419c.019-.175.029-.353.029-.53 0-2.641-2.148-4.79-4.79-4.79h-22.42c-2.642 0-4.79 2.149-4.79 4.79 0 .177.01.354.029.529l1.602 14.42c.27 2.429 2.318 4.261 4.762 4.261zm-4.393-19.21c0-1.539 1.252-2.79 2.79-2.79h22.42c1.538 0 2.79 1.251 2.79 2.79 0 .102-.006.205-.018.308l-1.602 14.419c-.156 1.416-1.349 2.483-2.773 2.483h-8.91l-5.865 3.91c-.332.221-.832-.044-.832-.445v-3.465h-3.607c-1.424 0-2.616-1.067-2.773-2.482l-1.602-14.421c-.012-.102-.018-.205-.018-.307z"/><path d="m54 5h-6v14h-2v-10h-6v10h-2v-8h-6v10h22zm-18 14h-2v-6h2zm6-8h2v8h-2zm10 8h-2v-12h2z"/><path d="m22 51.299-1.321-.48.596-1.273-3.82-3.82-1.273.595-.481-1.321h-1.701v-8h11v-1c0-5.098-3.405-9.531-8.311-10.856l-.173-.345c2.259-.592 3.999-2.466 4.393-4.798h.091c2.206 0 4-1.794 4-4 0-.925-.329-1.768-.858-2.446l.615-2.46c.161-.644.243-1.307.243-1.972 0-4.479-3.644-8.123-8.123-8.123h-7.754c-4.479 0-8.123 3.644-8.123 8.123 0 .665.082 1.328.243 1.97l.615 2.461c-.529.678-.858 1.521-.858 2.446 0 2.206 1.794 4 4 4h.09c.394 2.332 2.133 4.206 4.393 4.798l-.173.345c-4.904 1.325-8.31 5.759-8.31 10.857v1h11v8h-1.701l-.479 1.321-1.273-.595-3.82 3.82.596 1.273-1.323.48v5.401l1.321.48-.596 1.273 3.82 3.82 1.273-.595.481 1.322h5.402l.479-1.321 1.273.595 3.82-3.82-.596-1.273 1.323-.48v-1.701h6v-2h-6zm-7.618-26.299.401.803-1.197 1.197h-1.172l-1.197-1.197.401-.803zm-1.602 4h.439l1.5 6h-3.439zm10.166 6h-6.166l-1.673-6.693 1.18-1.18c3.641 1.039 6.259 4.155 6.659 7.873zm-4.251-21c.185.393.305.819.305 1.265v.735h-3v-2zm2.305 4v-2-.735-1.265c1.103 0 2 .897 2 2s-.897 2-2 2zm-11.877-15h7.754c3.376 0 6.123 2.747 6.123 6.123 0 .501-.062 1-.183 1.485l-.415 1.659c-.437-.165-.907-.267-1.402-.267h-1.23c-.342-.396-.739-.747-1.198-1.022l-.485-.292c-1.287-.772-2.087-2.185-2.087-3.686h-2c0 1.964.938 3.818 2.48 5h-.48c-1.103 0-2 .897-2 2h-2c0-1.103-.897-2-2-2h-2.625c.305-.659.782-1.236 1.406-1.652l.773-.516-1.109-1.664-.773.516c-1.193.795-2.035 1.976-2.425 3.316h-.247c-.495 0-.965.102-1.403.267l-.415-1.66c-.12-.483-.182-.983-.182-1.484 0-3.376 2.747-6.123 6.123-6.123zm-2.123 11h3l.001 2h-3.001zm-4 2c0-1.103.897-2 2-2v2 2c-1.103 0-2-.897-2-2zm4 3v-1h3c1.103 0 2-.897 2-2h2c0 1.103.897 2 2 2h3v1c0 2.206-1.794 4-4 4h-4c-2.206 0-4-1.794-4-4zm2.712 8.127 1.18 1.18-1.672 6.693h-6.166c.4-3.718 3.019-6.835 6.658-7.873zm10.288 28.172-.823.299-.443.204-.425 1.031.56 1.198-1.838 1.837-1.201-.562-1.077.447-.454 1.247h-2.598l-.3-.823-.212-.447-1.019-.423-1.2.562-1.838-1.837.56-1.198-.445-1.081-1.247-.454v-2.599l.823-.299.443-.204.425-1.031-.56-1.198 1.838-1.837 1.201.562 1.077-.447.454-1.246h2.598l.3.823.212.447 1.019.423 1.201-.562 1.838 1.837-.56 1.198.445 1.081 1.246.454z"/><path d="m13 49c-2.757 0-5 2.243-5 5s2.243 5 5 5 5-2.243 5-5-2.243-5-5-5zm0 8c-1.654 0-3-1.346-3-3s1.346-3 3-3 3 1.346 3 3-1.346 3-3 3z"/><path d="m60.845 56.172c.742-.888 1.155-1.998 1.155-3.172v-5c0-4.411-3.589-8-8-8s-8 3.589-8 8v5c0 1.174.413 2.284 1.155 3.172-.449.526-.835 1.104-1.155 1.724-.912-1.771-2.394-3.197-4.203-4.044.741-.727 1.203-1.735 1.203-2.852v-.697l1.059-1.588c.616-.924.941-2 .941-3.109 0-3.091-2.515-5.606-5.605-5.606h-2.789c-3.091 0-5.606 2.515-5.606 5.605 0 1.11.325 2.185.941 3.109l1.059 1.589v.697c0 1.117.462 2.125 1.203 2.852-3.068 1.436-5.203 4.543-5.203 8.148v1h16 2 16v-1c0-2.223-.814-4.256-2.155-5.828zm-17.845-10.567c0 .474-.1.936-.279 1.369-.279-.605-.756-1.11-1.379-1.422l-2.342-1.17v-2.382h.395c1.988 0 3.605 1.617 3.605 3.605zm-6.395-3.605h.395v2.382l-2.342 1.171c-.623.312-1.1.817-1.379 1.422-.178-.433-.279-.895-.279-1.37 0-1.988 1.617-3.605 3.605-3.605zm.395 11c-1.103 0-2-.897-2-2v-2.764c0-.381.212-.724.553-.894l2.447-1.224 2.447 1.224c.341.17.553.513.553.894v2.764c0 1.103-.897 2-2 2zm-5.929 8c.486-3.388 3.408-6 6.929-6s6.442 2.612 6.929 6zm28.929-13v5c0 .659-.227 1.283-.625 1.798-.49-.367-1.018-.684-1.578-.947.741-.726 1.203-1.734 1.203-2.851v-2.764c0-1.144-.636-2.171-1.658-2.683l-2.342-1.171v-2.292c2.833.479 5 2.943 5 5.91zm-7 5c-1.103 0-2-.897-2-2v-2.764c0-.381.212-.724.553-.894l2.447-1.224 2.447 1.224c.341.17.553.513.553.894v2.764c0 1.103-.897 2-2 2zm-5-5c0-2.967 2.167-5.431 5-5.91v2.292l-2.342 1.171c-1.022.511-1.658 1.539-1.658 2.683v2.764c0 1.117.462 2.125 1.203 2.852-.56.262-1.088.58-1.578.947-.398-.516-.625-1.14-.625-1.799zm-.929 13c.486-3.388 3.408-6 6.929-6s6.442 2.612 6.929 6z"/><path d="m42 30c-1.654 0-3 1.346-3 3s1.346 3 3 3 3-1.346 3-3-1.346-3-3-3zm0 4c-.552 0-1-.449-1-1s.448-1 1-1 1 .449 1 1-.448 1-1 1z"/><path d="m50 30c-1.654 0-3 1.346-3 3s1.346 3 3 3 3-1.346 3-3-1.346-3-3-3zm0 4c-.552 0-1-.449-1-1s.448-1 1-1 1 .449 1 1-.448 1-1 1z"/><path d="m55 33c0 1.654 1.346 3 3 3s3-1.346 3-3-1.346-3-3-3-3 1.346-3 3zm4 0c0 .551-.448 1-1 1s-1-.449-1-1 .448-1 1-1 1 .449 1 1z"/></g></svg>